<?xml version="1.0" encoding="UTF-8" standalone="no"?>
<svg
   version="1.1"
   id="Layer_1"
   x="0px"
   y="0px"
   width="100%"
   viewBox="0 0 1000 1000"
   enable-background="new 0 0 1000 1000"
   xml:space="preserve"
   sodipodi:docname="logo_adobe_express.svg"
   inkscape:version="1.1.2 (b8e25be833, 2022-02-05)"
   xmlns:inkscape="http://www.inkscape.org/namespaces/inkscape"
   xmlns:sodipodi="http://sodipodi.sourceforge.net/DTD/sodipodi-0.dtd"
   xmlns="http://www.w3.org/2000/svg"
   xmlns:svg="http://www.w3.org/2000/svg"><defs
   id="defs15" /><sodipodi:namedview
   id="namedview13"
   pagecolor="#505050"
   bordercolor="#ffffff"
   borderopacity="1"
   inkscape:pageshadow="0"
   inkscape:pageopacity="0"
   inkscape:pagecheckerboard="1"
   showgrid="false"
   inkscape:snap-global="false"
   inkscape:zoom="0.4365"
   inkscape:cx="436.42612"
   inkscape:cy="348.22451"
   inkscape:window-width="2560"
   inkscape:window-height="1369"
   inkscape:window-x="-8"
   inkscape:window-y="-8"
   inkscape:window-maximized="1"
   inkscape:current-layer="Layer_1" />


<circle
   style="font-variation-settings:'wght' 700;fill:#ff0000;fill-opacity:1;stroke:none;stroke-width:3.77953"
   id="path934"
   cx="510.88199"
   cy="513.17297"
   r="426.11685" /><path
   fill="#282828"
   opacity="1"
   stroke="none"
   d="m 389.76034,643.01646 c -8.85632,-1.16467 -17.40655,-1.65387 -25.61697,-3.58667 -21.00928,-4.94592 -33.94126,-20.52631 -37.46543,-44.16614 -6.83712,-45.86358 -7.34973,-91.88611 -3.09619,-137.98999 0.94541,-10.2471 2.17328,-20.51693 4.11713,-30.61343 4.70788,-24.4527 20.73175,-39.35687 45.78702,-41.38141 29.35321,-2.3718 58.78112,-4.06509 88.20968,-5.18237 24.46567,-0.92887 48.98673,-1.08051 73.46955,-0.69867 28.47436,0.44418 56.94439,1.6195 85.39447,2.94525 10.77234,0.50195 21.58178,1.75384 32.20324,3.63189 24.14197,4.2688 38.18323,18.11527 41.85743,42.45383 2.82605,18.72046 5.07,37.65482 5.68719,56.55567 1.17383,35.95248 1.05383,71.93524 -4.46155,107.67621 -2.56463,16.61956 -8.35266,31.06268 -23.13244,40.66259 -8.98651,5.8371 -19.13306,7.59687 -29.40369,8.59229 -57.30005,5.55322 -114.77753,5.75726 -172.24982,4.76947 -26.95923,-0.46332 -53.89331,-2.38806 -81.29962,-3.66852 m 81.39209,-185.3978 c -0.14612,0.80686 -0.41958,1.61359 -0.42007,2.4205 -0.0219,35.13071 -0.0301,70.26142 0.0245,105.3921 0.002,1.20953 0.66242,2.41809 1.74396,3.76184 0.31915,-0.0627 0.68311,-0.0466 0.95114,-0.19916 32.06397,-18.25006 64.12137,-36.51148 96.17215,-54.78476 0.46173,-0.26325 0.8349,-0.68173 1.47925,-1.21973 -31.32288,-17.8175 -62.21668,-35.40164 -93.13043,-52.95068 -1.97605,-1.12174 -4.10648,-1.97147 -6.8205,-2.42011 z"
   id="path6" />
<path
   fill="#fdfdfd"
   opacity="1"
   stroke="none"
   d="m 469.93747,455.39123 c 2.19934,1.0116 4.47539,1.89206 6.5865,3.05436 33.02681,18.18367 66.03232,36.40371 99.4962,54.86555 -0.68837,0.55745 -1.08706,0.99107 -1.58034,1.26384 -34.24156,18.9341 -68.4902,37.8559 -102.74584,56.76594 -0.28637,0.1581 -0.67519,0.14141 -1.35453,-0.34632 -0.35953,-38.90285 -0.38077,-77.25312 -0.40199,-115.60337 z"
   id="path8"
   style="stroke-width:1.05213" />

</svg>
